HIERARCHY
ROOT Hips
{
	OFFSET -14.64140 90.27770 -84.91600
	CHANNELS 6 Xposition Yposition Zposition Zrotation Xrotation Yrotation
	JOINT Spine
	{
		OFFSET 0.00000 13.20850 -1.60436
		CHANNELS 3 Zrotation Xrotation Yrotation
		JOINT Spine1
		{
			OFFSET 0.00000 8.61716 0.00000
			CHANNELS 3 Zrotation Xrotation Yrotation
			JOINT Spine2
			{
				OFFSET 0.00000 8.61717 0.00000
				CHANNELS 3 Zrotation Xrotation Yrotation
				JOINT Spine3
				{
					OFFSET 0.00000 8.61717 0.00000
					CHANNELS 3 Zrotation Xrotation Yrotation
					JOINT Neck
					{
						OFFSET 0.00000 11.07920 1.10792
						CHANNELS 3 Zrotation Xrotation Yrotation
						JOINT Neck1
						{
							OFFSET 0.00000 7.08032 0.00000
							CHANNELS 3 Zrotation Xrotation Yrotation
							JOINT Head
							{
								OFFSET 0.00000 7.08031 0.00000
								CHANNELS 3 Zrotation Xrotation Yrotation
								End site
								{
									OFFSET 0.00000 0.00000 0.00000
								}
							}
						}
					}
					JOINT RightShoulder
					{
						OFFSET -0.01000 7.91373 5.19711
						CHANNELS 3 Zrotation Xrotation Yrotation
						JOINT RightArm
						{
							OFFSET -18.41580 0.00000 0.00000
							CHANNELS 3 Zrotation Xrotation Yrotation
							JOINT RightForeArm
							{
								OFFSET -29.11090 0.00000 0.00000
								CHANNELS 3 Zrotation Xrotation Yrotation
								JOINT RightHand
								{
									OFFSET -24.65040 0.00000 0.00000
									CHANNELS 3 Zrotation Xrotation Yrotation
									JOINT RightHandThumb1
									{
										OFFSET -5.35114 -0.85590 3.97906
										CHANNELS 3 Zrotation Xrotation Yrotation
										JOINT RightHandThumb2
										{
											OFFSET -4.52789 0.00000 0.00000
											CHANNELS 3 Zrotation Xrotation Yrotation
											JOINT RightHandThumb3
											{
												OFFSET -2.46976 0.00000 0.00000
												CHANNELS 3 Zrotation Xrotation Yrotation
												End site
												{
													OFFSET 0.00000 0.00000 0.00000
												}
											}
										}
									}
									JOINT RightHandIndex1
									{
										OFFSET -14.26970 0.00000 2.88139
										CHANNELS 3 Zrotation Xrotation Yrotation
										JOINT RightHandIndex2
										{
											OFFSET -5.48836 0.00000 0.00000
											CHANNELS 3 Zrotation Xrotation Yrotation
											JOINT RightHandIndex3
											{
												OFFSET -3.01859 0.00000 0.00000
												CHANNELS 3 Zrotation Xrotation Yrotation
												End site
												{
													OFFSET 0.00000 0.00000 0.00000
												}
											}
										}
									}
									JOINT RightHandMiddle1
									{
										OFFSET -14.26970 0.00000 -0.09147
										CHANNELS 3 Zrotation Xrotation Yrotation
										JOINT RightHandMiddle2
										{
											OFFSET -6.17441 0.00000 0.00000
											CHANNELS 3 Zrotation Xrotation Yrotation
											JOINT RightHandMiddle3
											{
												OFFSET -3.56743 0.00000 0.00000
												CHANNELS 3 Zrotation Xrotation Yrotation
												End site
												{
													OFFSET 0.00000 0.00000 0.00000
												}
											}
										}
									}
									JOINT RightHandRing1
									{
										OFFSET -12.69180 0.00000 -3.06433
										CHANNELS 3 Zrotation Xrotation Yrotation
										JOINT RightHandRing2
										{
											OFFSET -5.62556 0.00000 0.00000
											CHANNELS 3 Zrotation Xrotation Yrotation
											JOINT RightHandRing3
											{
												OFFSET -3.56744 0.00000 0.00000
												CHANNELS 3 Zrotation Xrotation Yrotation
												End site
												{
													OFFSET 0.00000 0.00000 0.00000
												}
											}
										}
									}
									JOINT RightHandPinky1
									{
										OFFSET -11.11390 0.00000 -6.03719
										CHANNELS 3 Zrotation Xrotation Yrotation
										JOINT RightHandPinky2
										{
											OFFSET -4.52789 0.00000 0.00000
											CHANNELS 3 Zrotation Xrotation Yrotation
											JOINT RightHandPinky3
											{
												OFFSET -2.46976 0.00000 0.00000
												CHANNELS 3 Zrotation Xrotation Yrotation
												End site
												{
													OFFSET 0.00000 0.00000 0.00000
												}
											}
										}
									}
								}
							}
						}
					}
					JOINT LeftShoulder
					{
						OFFSET 0.01000 7.91373 5.19711
						CHANNELS 3 Zrotation Xrotation Yrotation
						JOINT LeftArm
						{
							OFFSET 18.41580 0.00000 0.00000
							CHANNELS 3 Zrotation Xrotation Yrotation
							JOINT LeftForeArm
							{
								OFFSET 29.11090 0.00000 0.00000
								CHANNELS 3 Zrotation Xrotation Yrotation
								JOINT LeftHand
								{
									OFFSET 24.65040 0.00000 0.00000
									CHANNELS 3 Zrotation Xrotation Yrotation
									JOINT LeftHandThumb1
									{
										OFFSET 5.35114 -0.85590 3.97906
										CHANNELS 3 Zrotation Xrotation Yrotation
										JOINT LeftHandThumb2
										{
											OFFSET 4.52789 0.00000 0.00000
											CHANNELS 3 Zrotation Xrotation Yrotation
											JOINT LeftHandThumb3
											{
												OFFSET 2.46977 0.00000 0.00000
												CHANNELS 3 Zrotation Xrotation Yrotation
												End site
												{
													OFFSET 0.00000 0.00000 0.00000
												}
											}
										}
									}
									JOINT LeftHandIndex1
									{
										OFFSET 14.26970 0.00000 2.88139
										CHANNELS 3 Zrotation Xrotation Yrotation
										JOINT LeftHandIndex2
										{
											OFFSET 5.48836 0.00000 0.00000
											CHANNELS 3 Zrotation Xrotation Yrotation
											JOINT LeftHandIndex3
											{
												OFFSET 3.01859 0.00000 0.00000
												CHANNELS 3 Zrotation Xrotation Yrotation
												End site
												{
													OFFSET 0.00000 0.00000 0.00000
												}
											}
										}
									}
									JOINT LeftHandMiddle1
									{
										OFFSET 14.26970 0.00000 -0.09147
										CHANNELS 3 Zrotation Xrotation Yrotation
										JOINT LeftHandMiddle2
										{
											OFFSET 6.17440 0.00000 0.00000
											CHANNELS 3 Zrotation Xrotation Yrotation
											JOINT LeftHandMiddle3
											{
												OFFSET 3.56744 0.00000 0.00000
												CHANNELS 3 Zrotation Xrotation Yrotation
												End site
												{
													OFFSET 0.00000 0.00000 0.00000
												}
											}
										}
									}
									JOINT LeftHandRing1
									{
										OFFSET 12.69180 0.00000 -3.06433
										CHANNELS 3 Zrotation Xrotation Yrotation
										JOINT LeftHandRing2
										{
											OFFSET 5.62556 0.00000 0.00000
											CHANNELS 3 Zrotation Xrotation Yrotation
											JOINT LeftHandRing3
											{
												OFFSET 3.56744 0.00000 0.00000
												CHANNELS 3 Zrotation Xrotation Yrotation
												End site
												{
													OFFSET 0.00000 0.00000 0.00000
												}
											}
										}
									}
									JOINT LeftHandPinky1
									{
										OFFSET 11.11390 0.00000 -6.03719
										CHANNELS 3 Zrotation Xrotation Yrotation
										JOINT LeftHandPinky2
										{
											OFFSET 4.52789 0.00000 0.00000
											CHANNELS 3 Zrotation Xrotation Yrotation
											JOINT LeftHandPinky3
											{
												OFFSET 2.46976 0.00000 0.00000
												CHANNELS 3 Zrotation Xrotation Yrotation
												End site
												{
													OFFSET 0.00000 0.00000 0.00000
												}
											}
										}
									}
								}
							}
						}
					}
					JOINT pCube4
					{
						OFFSET 0.00000 10.91090 1.10792
						CHANNELS 3 Zrotation Xrotation Yrotation
						End site
						{
							OFFSET 0.00000 0.00000 0.00000
						}
					}
				}
			}
		}
	}
	JOINT RightUpLeg
	{
		OFFSET -9.98441 0.00000 0.00000
		CHANNELS 3 Zrotation Xrotation Yrotation
		JOINT RightLeg
		{
			OFFSET 0.00000 -42.11790 0.00000
			CHANNELS 3 Zrotation Xrotation Yrotation
			JOINT RightFoot
			{
				OFFSET 0.00000 -45.00020 -0.00001
				CHANNELS 3 Zrotation Xrotation Yrotation
				JOINT RightForeFoot
				{
					OFFSET 0.00000 -3.74820 0.00000
					CHANNELS 3 Zrotation Xrotation Yrotation
					JOINT RightToeBase
					{
						OFFSET 0.00000 0.06325 14.43120
						CHANNELS 3 Zrotation Xrotation Yrotation
						End site
						{
							OFFSET 0.00000 0.00000 0.00000
						}
					}
				}
			}
		}
	}
	JOINT LeftUpLeg
	{
		OFFSET 9.98441 0.00000 0.00000
		CHANNELS 3 Zrotation Xrotation Yrotation
		JOINT LeftLeg
		{
			OFFSET 0.00000 -42.11800 0.00000
			CHANNELS 3 Zrotation Xrotation Yrotation
			JOINT LeftFoot
			{
				OFFSET 0.00000 -45.00070 0.00000
				CHANNELS 3 Zrotation Xrotation Yrotation
				JOINT LeftForeFoot
				{
					OFFSET 0.00000 -3.74824 0.00000
					CHANNELS 3 Zrotation Xrotation Yrotation
					JOINT LeftToeBase
					{
						OFFSET 0.00000 0.06325 14.43110
						CHANNELS 3 Zrotation Xrotation Yrotation
						End site
						{
							OFFSET 0.00000 0.00000 0.00000
						}
					}
				}
			}
		}
	}
}
MOTION
Frames: 4
Frame Time: 0.050000
0.007023232646635888 0.04377738917652062 0.0005376892253073543 0.0017042616409481887 0.006128887662373844 -0.007887332279683544 -3.683508478986143 6.1073467277747335 -0.7334210911524093 -1.0810420707514883 4.077854350798716 0.41115551417345664 -1.0334762429879958 0.8038784634366862 0.022173327335718886 1.2761544530820736 1.0728376204185506 -0.8352351355423702 0.05259946146775194 9.69438124570273 -1.193497878839289 -0.4122532072413974 -1.6719970674734759 -6.016870530889524 0.03737236717514303 -16.19161314487929 -0.4523590570207445 4.725385527672119 -0.8350464041609005 -14.50203013860415 62.620608271535495 17.449613369786274 13.026579649898895 17.933007997491508 6.1633693656411195 94.26391666814774 13.817111560253533 -0.2722869532836583 -7.874341537513957 4.503010267968909 -0.11036148536228536 -1.5623983529784151 -0.02326481239020855 0.027472377957819157 -56.209697785253205 0.031229572444334462 0.00678350141986319 -56.218209767827155 -38.78075969723171 -0.03887174393736278 -0.027639581809097175 0.02355250164016163 -0.04438114761256343 -0.012235067705568902 0.009775715307306782 0.03362739586886148 -0.0406659777074449 -36.74114032081893 0.03460969254623728 0.04001482043287834 -0.011927664509743568 0.00598624641916308 0.006345391815920658 0.009019333890998068 0.007340145451944266 -0.04459791322060538 -19.804297882709843 -0.02197439887757216 0.042013313914927304 -0.03779127056792159 -0.016077433830173616 -0.0391025203618175 0.039370943045002944 0.006445537443838913 -0.011983298258212198 24.05598181109713 -0.01000075407458744 0.04244569012607109 28.852083835019158 -0.025340341007137435 0.004646863305424625 28.83271553085268 0.020173024202148834 -0.013907152414750561 -5.027232664755519 -0.508994559296439 12.90800624034341 -62.5359979307755 28.239772401955076 -7.333679190045789 -2.271346043428057 3.8023349983523596 -63.921528463345744 -13.601687679003625 3.8888082902881194 0.3293943791940033 -0.4628191141835539 0.10913759816287072 -8.105065431172413 0.003498597335363192 -0.04304418427406155 44.53551702528406 0.01787537261423837 0.02679547069316629 44.61579942933789 12.494440882173379 0.01606937690947233 -0.04236079172464449 -0.0037617908307269006 0.025046545118579906 0.046282783398641884 0.0419947591913077 0.027190927242691818 0.02455998148196387 11.09952987671857 0.041129292960844485 -0.04685518032881717 0.03969746902239305 0.0030541654812092068 -0.04828295848995172 0.029623745272812564 -0.03788531056634338 -0.007145482746566205 4.775234105663825 0.007993002346267864 0.0033487761271587153 0.02803288671192286 -0.00016191280633239902 0.021107251945314962 0.008441199185570878 -0.047392897147732385 -0.0040186276146550945 -5.62582688444479 -0.00634996796331676 0.014997005170935164 -6.705330121150728 -0.0003406758659338561 0.025848579979658014 -6.724839361774809 0.009379935692828849 0.0427697508668971 -0.008710248943680592 -0.03475569844806376 0.010866517576732721 8.01699870421499 3.5163741526451258 -19.210167334934145 0.003307989466422843 10.369508532599047 0.022956921826634634 -5.606384725820808 -15.624617419118023 3.198290295547063 0.027227588807403 -0.004333487159054255 0.0053622601526039145 0.03752406539914822 4.706468418273294 -0.04783718070120425 12.474218853079284 -8.237512247993605 6.864752975193134 -0.031523352514069757 46.373491892543875 -0.038201334447418495 -4.352853401760021 -14.740295665596342 -3.8128005666796336 -0.04337944011145474 -0.01226087971387828 0.036910117663590744 0.013941663756590048 -10.700979935857731 -0.015422297011073142 
-0.03602826373552753 0.031072372669127452 0.014992704708584482 -0.03871054797768033 -0.011857363288735682 -0.01052017278433052 -3.6412080866318486 6.28016298082638 -0.7641534946917026 -1.0415438948936009 4.056174864377527 0.476749466366099 -0.955548112467768 0.7484445152967732 -0.07625442017617806 1.2321656217482106 1.0410213771914876 -0.7957774146561765 -0.04922290071457752 9.555582220874633 -1.1457192151381643 -0.4628943848991511 -1.753364510984379 -5.960016798504165 0.020908224479159746 -16.293938643465925 -0.395845506926914 4.800781986756737 -0.8347563943264121 -14.326796109111607 62.67156931496902 17.025592849787802 12.57875380553758 19.60506668623421 6.694595682339871 93.88081456784198 14.25922185213207 -0.30409265121973844 -8.113938417700748 4.5030698948328025 -0.09378178945831828 -1.5456953747914628 0.04306148089250891 -0.04308170421215361 -56.24197357208905 -0.04391477219002873 0.021862398948960474 -56.264697597834854 -38.75633483083882 -0.03633239924499424 -0.02135955340126173 -0.024641154732164775 -0.018073984937912412 0.02347792851956644 -0.03341909523794647 0.04509798341963415 -0.005767599445734256 -36.70435637399067 -0.02000685983080612 -0.006297421191413423 0.032930197076436185 -0.003534283314300177 -0.047965436896558154 0.01170308980138122 0.0492019603236897 -0.03402831300580806 -19.746081704656877 0.015242216372267442 -0.004496300580962154 -0.02954602047378352 0.011160227162811209 0.02261578031119311 0.034315069620329354 -0.048683614017804 0.04244730926462351 24.011731065691293 0.03312159731259649 0.03735523756191899 28.871125974608166 -0.019213142559309244 0.00824710868592995 28.859934228356785 -0.01412388534395495 0.02375100058352824 -4.889741119070691 -0.49563803837405285 12.770489509070595 -62.216869564394386 28.248370537665636 -7.68823630973303 -3.8629235261059134 4.388761233466654 -66.36643834178729 -14.004323692957744 3.3585759816419953 0.5423275996585146 -0.437878148068903 0.04349513195157083 -8.074820849783992 -0.014984089883792948 -0.03942632167515684 44.543435409270984 0.0004722397968425272 0.013089858881798144 44.5899219314049 12.448738107232556 -0.035279266907389216 0.006521459405465131 0.012070806865722445 -0.027171311962646525 0.03778289375133866 -0.012450186672184721 0.027314271065923375 -0.0015187689008001957 11.080541175946395 0.04159723063329114 -0.032472452924032266 0.027036989121413148 -0.03033360065485508 -0.035913573201515434 0.021527622637956694 -0.01757170263238337 0.0003721335024732076 4.732065399756996 -0.018426897082168315 -0.007715953530771197 0.01763666133138571 -0.03735688446908458 -0.03218747564833674 -0.012803451000018472 -0.020988658563227937 -0.02302869101650403 -5.608472864267294 0.004766834618883516 -0.03832883642809759 -6.6795233703823715 -0.005844317828748899 -0.030476727072983278 -6.6736527512037735 0.019161279172948097 -0.036246786183404496 -0.027216842049909387 0.010933011044590163 -0.042845766060520776 8.042860456377996 3.5178388830804987 -19.23057201690076 -0.015763258406680344 10.38171062341222 0.03018867145275987 -5.620579400082472 -15.664221838789764 3.157052115070408 -0.009940295707999638 -0.022296864357827403 0.03074148932916419 -0.03742261064921049 4.719471541297286 0.047328083899428636 12.49488863448066 -8.209511107177784 6.876055792725083 0.016010759076540555 46.38495204588696 -0.005198905141435131 -4.372419758195907 -14.76518339032738 -3.842683630874421 -0.010163027713663501 -0.03680490406329925 0.04073901639942458 0.03737339064609424 -10.711988140368009 0.022580246069251478 
0.01228722722492953 0.03209264535735996 0.017168609521907723 -0.04705144574222981 0.00914184671175023 -0.03712823677638909 -3.424345831299271 6.269474514023913 -0.7960332930521301 -1.0272837956062724 4.0171792076047295 0.4553070630230626 -0.9964946614106913 0.7836458528184037 -0.2188048834437863 1.2003756431850883 0.9968285125188058 -0.8388155959455913 -0.05175798537268793 9.435536198292793 -1.12162868780611 -0.4397658728315869 -1.7754729416946124 -5.704923533933313 0.03771971978516055 -16.404553814683645 -0.45391625168963257 4.704977267155497 -0.8075905974673769 -14.176775913029202 63.062537270273126 16.879645896024407 12.066472017587904 21.6618873697265 7.237848154997747 93.82152905474857 14.682580950327567 -0.2648918341541076 -8.246371568119162 4.5405828357712545 -0.17126779254908275 -1.6042085362133758 -0.032692153019314184 -0.04674869700427858 -56.19266897882937 0.0024403917856825608 -0.033901943770640396 -56.23854493023492 -38.799126933275694 -0.005360612976281943 0.02474857850547039 0.018430034881686555 0.014216708348167678 -0.03493870669407043 -0.031360745315733136 0.022674144971104062 -0.045562768313037225 -36.6871972237481 0.011855983903496323 0.012731534255662385 -0.04929444265904132 0.046406795094493365 0.04998712365386662 0.017666733378315595 0.04906663283344695 0.007259936869381658 -19.774685507055665 0.040226644230698654 0.01690866171186456 0.005097902997489788 0.01845091206000643 -0.010106262106860574 -0.04140256726388408 -0.0477754467700564 -0.005304250145963604 24.082582362836128 0.019361776222388643 -0.011057496410453168 28.894048228506605 -0.026539062133494287 0.023073088230876764 28.893169136335423 0.003936909146971768 0.012818783620717183 -4.665568978018527 -0.4866870431119079 12.582417103613821 -62.12265550563946 28.47734404679721 -8.24689212973667 -5.844290964719676 5.0528726998337845 -69.4157124916023 -14.130604463386646 2.767320549175436 0.7874333387947704 -0.4733436856494951 0.10296245031119877 -8.108568194108058 -0.01876402825689701 0.016405413703055156 44.6044064491549 0.02059702583151694 -0.005753240519957949 44.567391869363306 12.438051601003423 -0.021995127509499928 -0.04185633486342254 0.02682689967085238 0.007413328531438009 -0.004092729399772493 0.008651390554901226 -0.035145301416229846 0.02860525386081062 11.077949341845825 -0.036593434900513706 -0.0009266663069146286 -0.04888742171742639 0.013665078368909424 -0.020391545025200533 0.010195528222059932 0.01876671032086138 -0.010958108627140542 4.793231716158668 -0.004398555863875373 -0.045466036572878496 0.0008899261393616595 -0.018222141170452434 -0.030997348637409106 0.008354167858923135 0.034564746651746595 0.023219876846632577 -5.6030016351080185 0.045489937127795775 0.012136592639533848 -6.74513279424402 -0.008357565199200482 -0.004496535772322368 -6.697128466144955 -0.030760629838079683 0.03374292766600363 0.017977586066050554 -0.03359197353943326 -0.01540438178928824 8.043576707692049 3.521049744379099 -19.24758140351125 0.0330962752515524 10.37948490171124 0.04363943936310914 -5.63658776214562 -15.615265082504488 3.218748799966312 0.024574064742383134 -0.017563778030357146 -0.04974147733535475 0.04095667527194797 4.7090006845447965 -0.018296643098029846 12.452663413251447 -8.25495032975173 6.876082390775863 0.04808808556410394 46.33020374491087 0.0032335684343821978 -4.280160123860888 -14.718128602771632 -3.7894644616139375 0.00810395978449436 0.0033740020188219966 -0.02970443465270759 0.03324493990510826 -10.719195615150369 0.007631140478700458 
0.027156620805237754 -0.015204726587170697 0.0069104123156844485 -0.03118682139247644 -0.0394164396885199 0.04981278409858289 -3.2690329262472613 6.228061480403574 -0.7209012255537754 -1.0284425325811504 3.9536858224651983 0.4349720176841246 -1.0068177960257856 0.6760561007399953 -0.23058388973146166 1.1713768880158908 0.9462805522174212 -0.808840208545003 -0.09304352733123729 9.42279106942169 -0.9616159228461024 -0.40872947665231785 -1.7171811901805956 -5.450157385069982 -0.0482826267408358 -16.4104682454763 -0.4041611867723877 4.607482310771835 -0.707514639140825 -14.137076991410629 63.56590417478242 16.642627424997052 11.558190765349309 24.056529329230358 7.686233319178211 94.0218712169708 14.9031355840047 -0.25734652474365416 -8.358366374159393 4.5080734995043965 -0.09295414017772201 -1.5857419755277087 0.020121711359086223 0.03545098159662186 -56.2372241234881 -0.000840371529551771 0.031242037373973564 -56.23476988911472 -38.752186424499584 0.017501433967907758 -0.0058663768834119195 0.001930055924037703 -0.0017409506503070985 -0.033479444886470706 -0.0266410551282023 0.023861466653946027 -0.037379345490168255 -36.712624958846305 0.04457056800625997 0.011083365474400399 -0.03062975334326752 -0.008662391930309907 0.012200346817350308 0.024429666498401593 0.03802079533671256 0.026181007671089617 -19.730129711691323 0.03508498738938407 -0.0012547744235855026 -0.016336072327042116 0.0478596132945593 -0.005513023047320704 -0.029275597320183786 -0.021857368322300938 -0.027720260643187323 24.086822591609103 -0.04533422058747036 0.025705232812003945 28.85993195423191 0.013626581663417035 -0.029159733271802917 28.878391780539594 -0.02865977488775938 0.011585311070320148 -4.207097829888067 -0.36456957287588354 12.530520010446068 -62.24245623128091 28.76397834306157 -8.890951447253787 -8.003677770433496 5.615140680543044 -73.01338910450707 -14.145696364288707 2.3101658293306153 0.8582787324755918 -0.5068416665019382 0.0239487190563061 -8.168946594170933 0.03574892489235901 0.030875235715414822 44.616238717582476 0.0359929836902901 0.0041370136828060965 44.53239385019849 12.473849015558148 0.02084381048689747 0.025656985112129584 -0.031840083882399645 0.0024305441790406297 0.02068884651638214 -0.023729109512897206 -0.004590313104926853 -0.040067281564281486 11.073360616902486 0.04380517520107347 0.016250307273462442 -0.026037861650978062 0.014928293488169726 -0.02869341995231567 -0.03965936104697302 0.011863819662777032 0.006417619073103532 4.807882094837115 0.005197303254711155 0.01249589212044179 -0.016213413337530617 -0.00433246275829862 0.035126678569593464 -0.004567338497563318 -0.015524017829009914 0.00831622615810768 -5.641553573467054 0.01615928454086549 -0.0033856445355461666 -6.727146398787142 -0.03355675672657523 -0.04846993298772041 -6.751262857204056 -0.020858290096071364 0.024938320180982014 -0.015545411954247378 -0.03787536961541028 -0.022775752031312574 8.015685986307046 3.528242833280027 -19.202655594429178 0.032559893171775336 10.371594427108118 0.05436893821310729 -5.582065612929655 -15.619481221720612 3.2185823650088117 -0.022394926349069297 0.014996911548602866 0.007462833599474794 0.016349222426899852 4.68125594450814 -0.012224993128799079 12.429758956658933 -8.1895054373953 6.909101823504875 -0.03190409982240972 46.36137506867193 -0.030536351533436507 -4.284432548511013 -14.706270087085175 -3.838857380181825 0.0004504883278650455 0.0024600050641744808 0.014300408378586734 -0.04609735218705206 -10.711503255951275 -0.04323803880963522 
